<svg width="52" height="51"  viewBox="0 0 52 51" xmlns="http://www.w3.org/2000/svg">
<path d="M51.3132 37.0712C33.3741 21.5479 6.08629 45.438 6.08629 45.438C21.6085 60.9602 35.4767 38.2343 50.9117 38.1908C51.4695 38.2117 51.7396 37.4523 51.3132 37.0712Z"/>
<path d="M14.4506 0.208711C14.0707 -0.216567 13.3322 0.0745034 13.3543 0.633416C13.2875 16.0452 -9.43822 29.9135 6.08629 45.438C6.08629 45.438 29.974 18.1478 14.4506 0.208711Z"/>
<path d="M18.7006 29.8687C17.8507 31.8365 16.8886 33.7828 15.8387 35.6855C17.7385 34.6328 19.6622 33.6934 21.6532 32.8213C29.0794 29.6445 35.9013 28.6382 41.8512 29.7566C51.0447 17.2979 53.1037 6.56245 49.0328 2.49148C44.9606 -1.58063 34.224 0.477218 21.7648 9.67016C22.907 15.6438 21.8769 22.442 18.7006 29.8687ZM43.6644 18.5964L40.0856 22.1753L36.5067 18.5964L40.0856 15.0175L43.6644 18.5964ZM41.875 6.07036L45.4539 9.64923L41.875 13.2281L38.2961 9.64923L41.875 6.07036ZM29.3489 15.0175L32.9278 18.5964L29.3489 22.1753L25.7701 18.5964L29.3489 15.0175Z"/>
</svg>
