<svg width="50" height="52" viewBox="0 0 50 52" fill="none" xmlns="http://www.w3.org/2000/svg">
<path d="M48.5732 8.07403L48.6811 8.02592C44.3874 7.78484 40.0769 8.00125 35.8408 8.6707C27.8679 1.45847 16.1796 -1.40109 5.19661 1.17385C4.6188 1.30377 4.26838 1.82681 4.41392 2.34216C4.45114 2.47401 4.51926 2.59731 4.61394 2.70401C4.70026 2.80025 12.3721 11.2595 25.3095 11.8465C19.1203 14.5627 14.1838 19.1152 11.347 24.723C5.25056 25.1753 0.405762 31.0458 0.405762 38.1962C0.405762 45.6834 5.62822 51.756 12.1023 51.756C15.9221 51.756 19.321 49.6099 21.4574 46.3186C21.5798 46.0299 21.6912 45.7412 21.7919 45.4525C22.0401 44.7692 22.2559 44.1051 22.4286 43.4604C24.3924 36.1656 21.7056 31.065 19.1915 28.1587C18.7189 27.598 18.2072 27.0645 17.6593 26.5611C17.368 26.3013 17.109 26.08 16.8824 25.8971C15.8653 25.3583 14.7463 24.9897 13.5806 24.8096C14.8538 22.2497 18.857 16.0136 28.6869 12.4624C26.8161 14.7657 25.7909 17.5292 25.7519 20.3731C22.843 20.98 20.3216 22.5887 18.7383 24.8481C19.2626 25.3057 19.7596 25.7876 20.2274 26.2917C23.2055 29.4868 26.982 35.6267 24.2521 44.6248C24.0687 45.2311 23.8637 45.847 23.6263 46.4726C24.8542 46.9919 26.195 47.2645 27.5539 47.2713C34.028 47.2713 39.2613 41.1988 39.2613 33.7308C39.2613 26.4168 34.2115 20.4501 27.9424 20.2576C28.0179 18.3329 28.7408 13.7424 33.5964 11.1536L35.7545 10.6724C39.9416 9.98987 44.2062 9.76359 48.4545 9.99877C49.0504 10.028 49.5601 9.6208 49.5929 9.08933C49.6257 8.55786 49.1691 8.10327 48.5732 8.07403ZM13.3216 47.7718C13.262 48.3032 12.7306 48.6911 12.1347 48.6379H11.9081C5.76849 47.4157 4.82974 41.9109 4.78658 41.6703L4.79737 41.7088C4.71388 41.1774 5.12944 40.6862 5.72533 40.6117C6.32122 40.5373 6.87193 40.9079 6.95541 41.4394C6.95541 41.6222 7.7431 45.847 12.3505 46.7132C12.9464 46.7663 13.3812 47.2403 13.3216 47.7718ZM32.9382 9.28662H32.8087L31.5247 9.58495C19.0944 11.6444 10.5054 5.36978 7.46255 2.67514C16.7497 0.94829 26.3965 3.38152 33.2943 9.19038L32.9382 9.28662Z" fill="#4686FF"/>
</svg>
