<svg width="24" height="24" viewBox="0 0 24 24" fill="none" xmlns="http://www.w3.org/2000/svg">
<path d="M23.3077 2.53845H0.692297C0.309984 2.53845 0 2.84844 0 3.23075V7.15382H24V3.23075C24 2.84844 23.69 2.53845 23.3077 2.53845ZM17.5385 6.23075H16.6154C16.233 6.23075 15.9231 5.92077 15.9231 5.53846C15.9231 5.15614 16.2331 4.84616 16.6154 4.84616H17.5385C17.9208 4.84616 18.2308 5.15614 18.2308 5.53846C18.2308 5.92077 17.9208 6.23075 17.5385 6.23075ZM20.3077 6.23075H19.3846C19.0023 6.23075 18.6923 5.92077 18.6923 5.53846C18.6923 5.15614 19.0023 4.84616 19.3846 4.84616H20.3077C20.6901 4.84616 21 5.15614 21 5.53846C21 5.92077 20.69 6.23075 20.3077 6.23075Z" fill="#4686FF"/>
<path d="M12 11.3077C10.3458 11.3077 9 12.6535 9 14.3077C9 15.9619 10.3458 17.3077 12 17.3077C13.6542 17.3077 15 15.9619 15 14.3077C15 12.6535 13.6542 11.3077 12 11.3077ZM12 15.7384C11.211 15.7384 10.5692 15.0966 10.5692 14.3077C10.5692 13.5188 11.211 12.8769 12 12.8769C12.789 12.8769 13.4308 13.5188 13.4308 14.3077C13.4308 15.0966 12.789 15.7384 12 15.7384Z" fill="#4686FF"/>
<path d="M2.0769 8.53845V11.5385C2.0769 14.189 3.10909 16.6809 4.98329 18.5551C6.8575 20.4293 9.34942 21.4615 12 21.4615C14.6505 21.4615 17.1424 20.4293 19.0166 18.5551C20.8908 16.6809 21.923 14.189 21.923 11.5385V8.53845H2.0769ZM12 18.6923C9.58229 18.6923 7.61537 16.7254 7.61537 14.3077C7.61537 11.89 9.58229 9.92309 12 9.92309C14.4176 9.92309 16.3846 11.89 16.3846 14.3077C16.3846 16.7254 14.4176 18.6923 12 18.6923Z" fill="#4686FF"/>
</svg>
