<svg width="22" height="22" viewBox="0 0 22 22" fill="none" xmlns="http://www.w3.org/2000/svg">
<path fill-rule="evenodd" clip-rule="evenodd" d="M4.36549 17.3831C5.25634 17.5985 6.29565 17.7061 7.48345 17.7061C8.65561 17.7061 9.68711 17.5985 10.578 17.3831C11.4844 17.1524 12.2346 16.7371 12.8285 16.1373C13.4224 15.522 13.8678 14.6453 14.1648 13.5071C14.4617 12.3689 14.6102 10.8847 14.6102 9.05435C14.6102 7.22402 14.4617 5.73977 14.1648 4.60158C13.8678 3.44801 13.4224 2.56361 12.8285 1.94837C12.2346 1.33313 11.4922 0.910158 10.6014 0.679444C9.71055 0.44873 8.67124 0.333374 7.48345 0.333374C6.29565 0.333374 5.25634 0.44873 4.36549 0.679444C3.49028 0.910158 2.74791 1.33313 2.13838 1.94837C1.54449 2.56361 1.09125 3.44801 0.778674 4.60158C0.481726 5.73977 0.333252 7.22402 0.333252 9.05435C0.333252 10.8847 0.481726 12.3689 0.778674 13.5071C1.09125 14.6453 1.54449 15.522 2.13838 16.1373C2.73228 16.7371 3.47465 17.1524 4.36549 17.3831ZM9.21825 14.43C8.74938 14.5684 8.17111 14.6376 7.48345 14.6376C6.76452 14.6376 6.17062 14.5684 5.70176 14.43C5.23289 14.2762 4.8578 13.9993 4.57648 13.5994C4.29516 13.1995 4.09199 12.6381 3.96696 11.9152C3.85755 11.1769 3.80285 10.2233 3.80285 9.05435C3.80285 7.83926 3.86537 6.86257 3.9904 6.12429C4.13106 5.37063 4.34205 4.80153 4.62337 4.41701C4.92032 4.0171 5.29541 3.74794 5.74864 3.60951C6.21751 3.47108 6.79578 3.40187 7.48345 3.40187C8.17111 3.40187 8.74938 3.47108 9.21825 3.60951C9.68711 3.74794 10.0622 4.0171 10.3435 4.41701C10.6248 4.80153 10.828 5.37063 10.953 6.12429C11.0781 6.86257 11.1406 7.83926 11.1406 9.05435C11.1406 10.2233 11.0781 11.1769 10.953 11.9152C10.828 12.6381 10.6248 13.1995 10.3435 13.5994C10.0778 13.9993 9.70274 14.2762 9.21825 14.43Z" fill="#4686FF"/>
<path d="M17.3179 21.586C17.9039 21.6398 18.5096 21.6667 19.1347 21.6667C19.924 21.6667 20.5413 21.4821 20.9867 21.113C21.44 20.7439 21.6666 20.2094 21.6666 19.5095V19.175C21.6666 18.7136 21.5728 18.3137 21.3853 17.9753C21.2055 17.6369 20.932 17.41 20.5648 17.2947C20.9242 17.1639 21.1782 16.9678 21.3267 16.7064C21.4751 16.4372 21.5494 16.1065 21.5494 15.7143V15.1375C21.5494 14.3992 21.3306 13.8532 20.893 13.4994C20.4632 13.1457 19.8732 12.965 19.123 12.9573C18.5447 12.9419 17.9743 12.9726 17.4116 13.0495C16.849 13.1188 16.3137 13.1957 15.8058 13.2803V15.0798H18.197C18.619 15.0798 18.9081 15.126 19.0644 15.2183C19.2207 15.3105 19.2988 15.4682 19.2988 15.6912V15.795C19.2988 15.9719 19.2246 16.095 19.0761 16.1642C18.9276 16.2334 18.6971 16.2795 18.3845 16.3026L16.4036 16.4295V18.1599L18.49 18.2521C18.7792 18.2598 19.0019 18.3137 19.1582 18.4136C19.3144 18.5059 19.3926 18.652 19.3926 18.852V19.0712C19.3926 19.2481 19.3144 19.375 19.1582 19.4519C19.0097 19.5211 18.7049 19.5557 18.2439 19.5557H15.6886V21.3552C16.1887 21.4552 16.7318 21.5321 17.3179 21.586Z" fill="#4686FF"/>
</svg>
