<svg width="12" height="24" viewBox="0 0 12 24" fill="none" xmlns="http://www.w3.org/2000/svg">
<path d="M10.8829 15.004C10.4257 14.2882 9.81801 13.6805 9.10215 13.2233V3.14755C9.10215 1.40918 7.69297 0 5.95461 0C4.21624 0 2.80706 1.40918 2.80706 3.14755V13.2233C0.0852302 14.9616 -0.712058 18.5773 1.02631 21.2991C2.76467 24.021 6.38032 24.8182 9.10215 23.0799C11.824 21.3415 12.6212 17.7259 10.8829 15.004ZM9.02123 18.436C8.80244 19.9616 7.49354 21.093 5.95237 21.0888V21.0843C4.24493 21.089 2.85695 19.7087 2.8522 18.0012C2.84795 16.4601 3.97939 15.1512 5.50496 14.9324V8.14962C5.50496 7.90253 5.70529 7.7022 5.95237 7.7022C6.19945 7.7022 6.39978 7.90253 6.39978 8.14962V14.9369C8.08994 15.1792 9.26361 16.7459 9.02123 18.436Z" fill="#4686FF"/>
</svg>
