<svg width="24" height="16" viewBox="0 0 24 16" fill="none" xmlns="http://www.w3.org/2000/svg">
<path d="M18.8066 16C18.7309 16 18.6559 15.9983 18.5814 15.9948C18.5689 15.9938 18.5564 15.9938 18.5438 15.9938C18.5116 15.9938 18.4796 15.9955 18.448 15.9998H3.99006C3.9694 15.9973 3.94921 15.9955 3.92856 15.9938C1.72534 15.8739 0 13.9487 0 11.6109C0 9.11191 2.01917 7.11867 4.36999 7.22811C4.59511 7.23932 4.81653 7.14734 4.97968 6.97982C5.14331 6.81131 5.23591 6.57624 5.23591 6.33319C5.23591 2.84104 8.03535 0 11.4763 0C14.2128 0 16.6047 1.77786 17.4287 4.42371C17.5503 4.81508 17.9091 5.07732 18.2918 5.02622C18.4612 5.00877 18.6327 5.0003 18.8066 5.0003C21.6703 5.0003 24 7.46741 24 10.5001C24 13.5331 21.6705 16 18.8066 16Z" fill="#4686FF"/>
</svg>
