<svg width="16" height="24" viewBox="0 0 16 24" fill="none" xmlns="http://www.w3.org/2000/svg">
<path d="M15.3886 9.25355C15.345 9.1766 15.2817 9.11259 15.2053 9.06805C15.1289 9.02352 15.042 9.00005 14.9536 9.00005H8.40359L9.50172 0.609675C9.5135 0.497383 9.48715 0.384393 9.42691 0.288897C9.36667 0.193402 9.27604 0.120957 9.16963 0.0832279C9.06321 0.0454987 8.94719 0.0446805 8.84025 0.080905C8.73331 0.117129 8.64167 0.188289 8.58009 0.282925L0.614591 14.2382C0.568011 14.3139 0.542482 14.4008 0.540635 14.4897C0.538788 14.5786 0.560691 14.6664 0.604085 14.744C0.647479 14.8216 0.710794 14.8863 0.787501 14.9313C0.864208 14.9763 0.951531 15 1.04047 15.0001H7.49259L6.62234 23.4031C6.61379 23.515 6.64291 23.6265 6.70507 23.72C6.76722 23.8134 6.85885 23.8834 6.96536 23.9187C7.07187 23.9541 7.18715 23.9528 7.29286 23.9151C7.39857 23.8774 7.48863 23.8055 7.54872 23.7107L15.3826 9.75693C15.428 9.68105 15.4525 9.59448 15.4536 9.50605C15.4546 9.41762 15.4322 9.33049 15.3886 9.25355Z" fill="#4686FF"/>
</svg>
