<svg width="20" height="24" viewBox="0 0 20 24" fill="none" xmlns="http://www.w3.org/2000/svg">
<path d="M14.1684 5.2658C12.9401 3.69961 11.6712 2.08087 10.6471 0.343495C10.3769 -0.114498 9.62304 -0.114498 9.35425 0.343495C8.32865 2.08087 7.05978 3.69961 5.83145 5.2658C3.34177 8.44173 0.990234 11.442 0.990234 14.9903C0.990234 19.9591 5.03109 24 9.99995 24C14.9688 24 19.0097 19.9591 19.0097 14.9903C19.0097 11.442 16.6581 8.44173 14.1684 5.2658ZM7.74752 8.98381C8.98936 8.98381 9.99995 9.9944 9.99995 11.2362C9.99995 12.4781 8.98936 13.4887 7.74752 13.4887C6.50568 13.4887 5.49509 12.4781 5.49509 11.2362C5.49509 9.9944 6.50568 8.98381 7.74752 8.98381ZM6.77747 19.2759C6.63031 19.4216 6.43811 19.4951 6.2459 19.4951C6.05369 19.4951 5.86149 19.4216 5.71433 19.2759C5.42151 18.9831 5.42151 18.5071 5.71433 18.2143L13.2224 10.7062C13.5152 10.4134 13.9913 10.4134 14.2841 10.7062C14.5769 10.999 14.5784 11.475 14.2856 11.7678L6.77747 19.2759ZM12.2524 20.9968C11.0105 20.9968 9.99995 19.9862 9.99995 18.7443C9.99995 17.5025 11.0105 16.4919 12.2524 16.4919C13.4942 16.4919 14.5048 17.5025 14.5048 18.7443C14.5048 19.9862 13.4942 20.9968 12.2524 20.9968Z" fill="#4686FF"/>
</svg>
