<svg width="24" height="24" viewBox="0 0 24 24" fill="none" xmlns="http://www.w3.org/2000/svg">
<path d="M0 21C0 22.6569 1.34315 24 3 24H21C22.6569 24 24 22.6569 24 21V3C24 1.34315 22.6569 0 21 0H3C1.34315 0 0 1.34315 0 3V21ZM11.2392 21.1097C6.77053 20.7403 3.25973 17.2295 2.89031 12.7608L4.29244 12.6455C4.60416 16.4255 7.57463 19.3959 11.3546 19.7076L11.2392 21.1097ZM11.2097 18.2787C8.33747 17.9196 6.08044 15.6625 5.72133 12.7903L7.11661 12.6159C7.39608 14.8489 9.15112 16.6039 11.3841 16.8834L11.2097 18.2787ZM11.1211 15.4044C9.88308 15.0844 8.91558 14.1169 8.59561 12.8789L9.95794 12.5273C10.1495 13.2703 10.7297 13.8505 11.4727 14.0421L11.1211 15.4044ZM11.2969 12.7031V11.2969H12.7031V12.7031H11.2969ZM14.0421 12.5273L15.4044 12.8789C15.0844 14.1169 14.1169 15.0844 12.8789 15.4044L12.5273 14.0421C13.2703 13.8505 13.8505 13.2703 14.0421 12.5273ZM16.8834 12.6159L18.2787 12.7904C17.9196 15.6626 15.6626 17.9196 12.7904 18.2787L12.6159 16.8834C14.8489 16.604 16.604 14.8489 16.8834 12.6159ZM12.7608 21.1097L12.6454 19.7076C16.4254 19.3959 19.3958 16.4254 19.7076 12.6455L21.1097 12.7608C20.7403 17.2295 17.2295 20.7403 12.7608 21.1097ZM21.1406 21.1406H19.7344V19.7344H21.1406V21.1406ZM19.7344 2.85938H21.1406V4.26562H19.7344V2.85938ZM12.7608 2.89027C17.2295 3.25969 20.7403 6.77048 21.1097 11.2392L19.7076 11.3545C19.3958 7.57453 16.4254 4.60411 12.6454 4.29239L12.7608 2.89027ZM12.7903 5.72133C15.6625 6.08044 17.9196 8.33747 18.2787 11.2097L16.8834 11.3841C16.6039 9.15112 14.8489 7.39608 12.6159 7.11661L12.7903 5.72133ZM12.8789 8.59561C14.1169 8.91558 15.0844 9.88308 15.4044 11.1211L14.0421 11.4727C13.8505 10.7297 13.2703 10.1495 12.5273 9.95794L12.8789 8.59561ZM9.95794 11.4727L8.59561 11.1211C8.91558 9.88308 9.88308 8.91558 11.1211 8.59561L11.4727 9.95794C10.7297 10.1495 10.1495 10.7297 9.95794 11.4727ZM7.11656 11.3841L5.72128 11.2096C6.08039 8.33742 8.33742 6.08039 11.2096 5.72128L11.3841 7.11656C9.15112 7.39603 7.39603 9.15112 7.11656 11.3841ZM11.2392 2.89027L11.3546 4.29239C7.57458 4.60411 4.60416 7.57458 4.29244 11.3545L2.89031 11.2392C3.25969 6.77053 6.77053 3.25969 11.2392 2.89027ZM2.85938 2.85938H4.26562V4.26562H2.85938V2.85938ZM2.85938 19.7344H4.26562V21.1406H2.85938V19.7344Z" fill="#4686FF"/>
</svg>
