<svg width="55" height="56" viewBox="0 0 55 56" xmlns="http://www.w3.org/2000/svg">
<g clip-path="url(#clip0)">
<path d="M52.219 10.5637V0.758545H3.22437V10.5637H6.73484V52.1183H4.8227V55.315H50.6207V52.1183H48.7086V10.5637H52.219ZM6.42103 7.36701V3.95521H49.0224V7.36701H48.7086H6.73484H6.42103ZM45.5119 44.2009H9.9315V18.4811H45.5118V44.2009H45.5119ZM9.9315 52.1183V47.3976H45.5118V52.1183H9.9315ZM45.5119 15.2844H9.9315V10.5637H45.5118V15.2844H45.5119Z"/>
<path d="M22.0572 37.9743C23.5429 39.8809 25.5545 40.9308 27.7215 40.9308C29.8886 40.9308 31.9002 39.8808 33.3859 37.9743C34.78 36.1857 35.5476 33.8298 35.5476 31.3411C35.5476 28.8524 34.7799 26.4966 33.3859 24.7078C31.9001 22.8012 29.8885 21.7513 27.7214 21.7513C25.5544 21.7513 23.5428 22.8013 22.057 24.7078C20.663 26.4966 19.8953 28.8524 19.8953 31.3411C19.8953 33.8298 20.6631 36.1857 22.0572 37.9743ZM30.8645 26.6727C31.8231 27.9028 32.351 29.5607 32.351 31.3411C32.351 33.1216 31.8231 34.7795 30.8645 36.0094C30.6233 36.3191 30.3621 36.5883 30.0867 36.8181C30.1282 36.4014 30.1522 35.945 30.1522 35.4336C30.1522 33.0747 29.6474 31.8337 29.202 30.7388C28.8186 29.7961 28.4875 28.982 28.4875 27.2482C28.4875 26.3125 28.585 25.6456 28.7247 25.1045C29.5141 25.3514 30.2518 25.8865 30.8645 26.6727ZM24.5786 26.6727C24.8198 26.3632 25.0809 26.0939 25.3563 25.8642C25.3148 26.2806 25.2909 26.737 25.2909 27.2481C25.2909 29.6071 25.7957 30.8481 26.2411 31.9431C26.6245 32.8858 26.9556 33.6997 26.9556 35.4335C26.9556 36.3694 26.8581 37.0363 26.7183 37.5776C25.929 37.3306 25.1914 36.7956 24.5786 36.0093C23.62 34.7794 23.0921 33.1215 23.0921 31.341C23.0921 29.5606 23.62 27.9028 24.5786 26.6727Z"/>
</g>
<defs>
<clipPath id="clip0">
<rect width="54.5564" height="54.5564" fill="white" transform="translate(0.443604 0.758545)"/>
</clipPath>
</defs>
</svg>
