<svg width="50" height="50" viewBox="0 0 50 50" xmlns="http://www.w3.org/2000/svg">
<g clip-path="url(#clip0)">
<path d="M21.7251 33.8373H1.92257C0.860736 33.8373 0 34.698 0 35.7599V47.2953C0 48.3571 0.860736 49.2179 1.92257 49.2179H21.7251C22.7869 49.2179 23.6477 48.3571 23.6477 47.2953V35.7599C23.6477 34.698 22.7869 33.8373 21.7251 33.8373ZM19.8025 45.3727H3.84515V37.6824H19.8025V45.3727Z"/>
<path d="M21.7251 0H1.92257C0.860736 0 0 0.860736 0 1.92257V29.9921C0 31.054 0.860736 31.9147 1.92257 31.9147H21.7251C22.7869 31.9147 23.6477 31.054 23.6477 29.9921V1.92257C23.6477 0.860736 22.7869 0 21.7251 0ZM19.8025 28.0696H3.84515V3.84515H19.8025V28.0696Z"/>
<path d="M47.2954 0H27.4929C26.431 0 25.5703 0.860736 25.5703 1.92257V13.458C25.5703 14.5199 26.431 15.3806 27.4929 15.3806H47.2954C48.3572 15.3806 49.218 14.5199 49.218 13.458V1.92257C49.218 0.860736 48.3572 0 47.2954 0ZM45.3728 11.5354H29.4155V3.84515H45.3728V11.5354Z"/>
<path d="M47.2954 17.3031H27.4929C26.431 17.3031 25.5703 18.1638 25.5703 19.2257V47.2952C25.5703 48.3571 26.431 49.2178 27.4929 49.2178H47.2954C48.3572 49.2178 49.218 48.3571 49.218 47.2952V19.2257C49.218 18.1638 48.3572 17.3031 47.2954 17.3031ZM45.3728 45.3727H29.4155V21.1482H45.3728V45.3727Z"/>
</g>
<defs>
<clipPath id="clip0">
<rect width="49.2179" height="49.2179" fill="white"/>
</clipPath>
</defs>
</svg>
