<svg width="68" height="54" viewBox="0 0 68 54" xmlns="http://www.w3.org/2000/svg">
<g clip-path="url(#clip0)">
<path d="M57.9537 33.2996H57.1322V26.4872H35.8778V33.2995H31.3401V26.4872H10.0857V33.2995H9.2642C4.15584 33.2996 0 37.4555 0 42.5638C0 47.6722 4.15584 51.828 9.2642 51.828H57.9537C63.062 51.828 67.2179 47.6722 67.2179 42.5638C67.2179 37.4555 63.062 33.2996 57.9537 33.2996ZM39.8171 30.4265H44.5353H48.4746H53.1929V33.2995H39.8171V30.4265ZM14.025 30.4265H18.7432H22.6825H27.4008V33.2995H14.025V30.4265ZM57.9537 47.8887H9.2642C6.32811 47.8887 3.93931 45.5001 3.93931 42.5638C3.93931 39.6276 6.32811 37.2389 9.2642 37.2389H57.9537C60.8898 37.2389 63.2786 39.6276 63.2786 42.5638C63.2786 45.5001 60.8898 47.8887 57.9537 47.8887Z"/>
<path d="M33.6089 40.0304C32.212 40.0304 31.0757 41.1669 31.0757 42.5636C31.0757 43.9604 32.2122 45.0969 33.6089 45.0969C35.0057 45.0969 36.1422 43.9604 36.1422 42.5636C36.1422 41.1669 35.0057 40.0304 33.6089 40.0304Z"/>
<path d="M41.4882 40.0304C40.0913 40.0304 38.9548 41.1669 38.9548 42.5636C38.9548 43.9604 40.0913 45.0969 41.4882 45.0969C42.8851 45.0969 44.0214 43.9604 44.0214 42.5636C44.0214 41.1669 42.885 40.0304 41.4882 40.0304Z"/>
<path d="M49.3672 40.0304C47.9703 40.0304 46.834 41.1669 46.834 42.5636C46.834 43.9604 47.9705 45.0969 49.3672 45.0969C50.7641 45.0969 51.9006 43.9604 51.9006 42.5636C51.9006 41.1669 50.7641 40.0304 49.3672 40.0304Z"/>
<path d="M57.2464 40.0304C55.8495 40.0304 54.7131 41.1669 54.7131 42.5636C54.7131 43.9604 55.8496 45.0969 57.2464 45.0969C58.6433 45.0969 59.7797 43.9604 59.7797 42.5636C59.7797 41.1669 58.6433 40.0304 57.2464 40.0304Z"/>
<path d="M25.7298 40.0304C24.3329 40.0304 23.1965 41.1669 23.1965 42.5636C23.1965 43.9604 24.333 45.0969 25.7298 45.0969C27.1267 45.0969 28.2631 43.9604 28.2631 42.5636C28.2631 41.1669 27.1267 40.0304 25.7298 40.0304Z"/>
<path d="M17.8508 40.0304C16.4539 40.0304 15.3174 41.1669 15.3174 42.5636C15.3174 43.9604 16.4539 45.0969 17.8508 45.0969C19.2476 45.0969 20.384 43.9604 20.384 42.5636C20.384 41.1669 19.2476 40.0304 17.8508 40.0304Z"/>
<path d="M9.9716 40.0304C8.57472 40.0304 7.43823 41.1669 7.43823 42.5636C7.43823 43.9604 8.57472 45.0969 9.9716 45.0969C11.3685 45.0969 12.5048 43.9604 12.5048 42.5636C12.5048 41.1669 11.3685 40.0304 9.9716 40.0304Z"/>
</g>
<defs>
<clipPath id="clip0">
<rect width="67.2179" height="67.2179" fill="white" transform="translate(0 0.297241)"/>
</clipPath>
</defs>
</svg>
