<svg width="49" height="48" viewBox="0 0 49 48" fill="none" xmlns="http://www.w3.org/2000/svg">
<g clip-path="url(#clip0)">
<path d="M37.4199 17.6149C39.0027 17.6149 40.291 18.877 40.291 20.4274C40.291 21.9779 39.0027 23.2399 37.4199 23.2399C35.8372 23.2399 34.5488 21.9779 34.5488 20.4274C34.5488 18.877 35.8372 17.6149 37.4199 17.6149Z" fill="#4686FF"/>
<path d="M14.4512 40.1149C15.612 40.1149 16.6522 40.7933 17.1008 41.8426C17.5361 42.859 17.2904 44.0022 16.4945 45.0741L13.3301 45.5153C12.3029 45.0864 11.5801 44.0882 11.5801 42.9274C11.5801 41.377 12.8685 40.1149 14.4512 40.1149Z" fill="#4686FF"/>
<path d="M14.5247 12.7417C14.6056 13.34 14.7637 13.928 15.0455 14.4851C16.0226 16.416 17.9951 17.6149 20.1933 17.6149C23.3602 17.6149 25.9354 15.0921 25.9354 11.9899C25.9354 9.83652 24.7116 7.90434 22.7405 6.94715C22.1718 6.67077 21.5723 6.51524 20.9621 6.43556L26.8789 0.639648L30.3921 1.21368C34.7697 1.92627 37.4842 3.65146 38.2441 3.97949C37.8234 4.9888 37.4198 5.4269 37.4198 6.36487C37.4198 7.9153 38.7082 9.17737 40.2909 9.17737C41.6957 9.17737 42.3097 8.29996 43.1171 7.78762C43.6013 8.4868 47.2268 11.5792 48.7803 18.1853L43.023 19.2253C42.4587 16.7003 40.1647 14.8025 37.4197 14.8025C34.2528 14.8025 31.6775 17.3252 31.6775 20.4275C31.6775 20.7237 31.7217 21.0089 31.7669 21.293L-0.000114441 27.1095V26.8763L14.5247 12.7417Z" fill="#4686FF"/>
<path d="M18.0667 9.90665C18.7635 9.42458 19.4995 9.17877 20.2032 9.17877C20.6419 9.17877 21.0682 9.27487 21.4663 9.46715C22.4519 9.9464 23.0645 10.9132 23.0645 11.9899C23.0645 13.5403 21.7761 14.8024 20.1934 14.8024C19.0943 14.8024 18.1073 14.2023 17.6181 13.2368C17.105 12.2206 17.2691 11.0162 18.0667 9.90665Z" fill="#4686FF"/>
<path d="M0 34.3182V29.9699L32.9652 23.9333C34.0185 25.2148 35.613 26.0524 37.4199 26.0524C39.9831 26.0524 42.1331 24.3888 42.8693 22.1138L49 21.0054V39.8759L40.4129 41.436L40.2812 39.8815C40.1606 38.4354 38.9031 37.3024 37.4199 37.3024C35.8372 37.3024 34.5488 38.5645 34.5488 40.1149C34.5488 40.7664 34.7376 41.0529 35.1405 42.4742L19.9038 44.5987C20.2932 43.315 20.2781 41.993 19.749 40.7562C18.8518 38.6578 16.7727 37.3024 14.4513 37.3024C11.2844 37.3024 8.70908 39.8251 8.70908 42.9274C8.70908 44.0727 9.06414 45.1365 9.66621 46.026L0 47.3604V40.2866C0.394775 40.1008 2.87109 39.7252 2.87109 37.3024C2.87109 34.7694 0.316967 34.5163 0 34.3182ZM24.5 37.3024C26.8748 37.3024 28.8066 35.41 28.8066 33.0837C28.8066 30.7573 26.8748 28.8649 24.5 28.8649C22.1252 28.8649 20.1934 30.7573 20.1934 33.0837C20.1934 35.41 22.1252 37.3024 24.5 37.3024Z" fill="#4686FF"/>
<path d="M24.5 31.6774C25.292 31.6774 25.9355 32.3077 25.9355 33.0836C25.9355 33.8595 25.292 34.4899 24.5 34.4899C23.708 34.4899 23.0645 33.8595 23.0645 33.0836C23.0645 32.3077 23.708 31.6774 24.5 31.6774Z" fill="#4686FF"/>
</g>
<defs>
<clipPath id="clip0">
<rect width="49" height="48" fill="white" transform="matrix(-1 0 0 1 49 0)"/>
</clipPath>
</defs>
</svg>
