<svg width="63" height="41" viewBox="0 0 63 41" fill="none" xmlns="http://www.w3.org/2000/svg">
<path d="M24.7272 35.0371C23.3603 31.225 22.6803 27.2005 22.7187 23.1509C22.3126 23.2387 21.9065 23.3265 21.4785 23.4033C21.0505 23.4802 20.6554 23.5241 20.2383 23.579C17.4329 23.9395 14.5928 23.9395 11.7874 23.579C11.3703 23.579 10.9532 23.4692 10.5472 23.4033C10.1411 23.3375 9.71305 23.2387 9.30696 23.1509C9.32425 27.2045 8.62197 31.229 7.23265 35.0371C7.06404 35.43 7.10959 35.882 7.35337 36.2334C7.53995 36.4968 9.33989 38.8126 15.7275 38.8126H16.2214C22.6089 38.8126 24.4089 36.4968 24.5955 36.2334C24.8428 35.8841 24.8926 35.4319 24.7272 35.0371Z" fill="#4686FF"/>
<path d="M15.9909 0.267578C7.1339 0.267578 0 7.13807 0 12.8123C0 16.8073 3.61085 19.9023 9.29602 21.2412C9.69113 21.351 10.1082 21.4388 10.5362 21.5156L11.7874 21.7132C14.5737 22.0861 17.3972 22.0861 20.1834 21.7132L21.4346 21.5156C21.8627 21.4388 22.2797 21.351 22.6858 21.2632C28.371 19.9242 31.9818 16.8731 31.9818 12.8342C31.9818 7.14905 24.8479 0.267578 15.9909 0.267578Z" fill="#4686FF"/>
<path d="M45.3607 29.3739C45.0095 29.1324 44.6692 28.891 44.3729 28.6276C42.1312 26.9149 40.1207 24.9191 38.3914 22.69C38.128 22.3498 37.8756 22.0205 37.6341 21.6803C37.3927 21.34 37.1622 20.9778 36.9317 20.5827C34.0774 23.4691 30.7329 25.8252 27.054 27.541C26.6576 27.7007 26.3716 28.0533 26.2967 28.4739C26.2418 28.8032 25.8687 31.7665 30.5661 36.3871C34.4293 40.2503 37.1183 40.7223 38.0841 40.7223C38.2265 40.7356 38.3697 40.7356 38.5121 40.7223C38.9252 40.6313 39.2712 40.3506 39.445 39.965C41.1606 36.2859 43.5167 32.9414 46.4033 30.0873C46.0521 29.8678 45.7119 29.6153 45.3607 29.3739Z" fill="#4686FF"/>
<path d="M62.9429 20.1547C62.1969 11.0723 54.6271 4.0698 45.5143 4.03207C42.6499 3.88789 39.841 4.85961 37.6779 6.74295C34.8573 9.56359 35.2195 14.3049 38.2926 19.2767C38.5121 19.6279 38.7425 19.9791 38.995 20.3742C39.2474 20.7693 39.4779 21.0546 39.7413 21.3949C40.5823 22.4967 41.4951 23.5416 42.4741 24.5228C43.4666 25.5166 44.5263 26.4407 45.646 27.2886C45.9862 27.552 46.3374 27.7825 46.6886 28.0129C47.0398 28.2434 47.402 28.4959 47.7861 28.7154C50.0543 30.233 52.6889 31.1125 55.4139 31.2616C57.2361 31.3287 59.0045 30.6373 60.2979 29.3519C62.2295 27.3764 63.2612 23.9302 62.9429 20.1547Z" fill="#4686FF"/>
</svg>
