<svg width="56" height="54" viewBox="0 0 56 54" fill="none" xmlns="http://www.w3.org/2000/svg">
<path d="M34.9479 47.9344L28.1892 46.5605C28.1583 46.5546 28.1284 46.5634 28.0975 46.5605C28.0299 46.5536 27.9662 46.5536 27.8996 46.5605C27.8388 46.5674 27.7808 46.5772 27.7239 46.5958C27.693 46.6056 27.6611 46.6046 27.6312 46.6164C27.6003 46.6292 27.5771 46.6537 27.5481 46.6694C27.5076 46.691 27.468 46.7096 27.4313 46.7381L21.0821 47.8137C20.5568 47.903 20.2006 48.4083 20.2884 48.9432C20.3676 49.423 20.776 49.7626 21.2395 49.7626C21.2916 49.7626 21.3457 49.7587 21.3997 49.7488L25.0513 49.1306L23.2612 50.95C22.8837 51.3337 22.8837 51.9539 23.2612 52.3376C23.4495 52.529 23.6967 52.6251 23.9439 52.6251C24.191 52.6251 24.4382 52.529 24.6265 52.3376L27.0345 49.8921V53.0187C27.0345 53.5604 27.467 54 28 54C28.533 54 28.9655 53.5604 28.9655 53.0187V49.8921L31.3726 52.3386C31.5608 52.53 31.808 52.6261 32.0552 52.6261C32.3023 52.6261 32.5495 52.53 32.7378 52.3386C33.1153 51.9549 33.1153 51.3347 32.7378 50.951L30.9371 49.1208L34.5694 49.8588C34.6331 49.8715 34.6968 49.8784 34.7596 49.8784C35.2105 49.8784 35.6141 49.5555 35.7048 49.0894C35.8101 48.5585 35.4712 48.0413 34.9479 47.9344Z" fill="#4686FF"/>
<path d="M32.8025 15.5012C33.1211 16.4492 33.2466 16.7965 33.4658 17.406C33.6598 17.9447 33.9273 18.6856 34.4603 20.2096C35.3823 22.8435 35.8033 26.1575 35.7116 30.0613C35.5735 35.9355 34.2044 41.1131 32.1546 44.3132C37.8627 41.4968 43.0292 35.5057 43.4492 28.2458C43.5699 26.1418 43.2812 24.2135 42.5909 22.5148C41.6109 20.1066 40.9862 17.4462 40.7129 14.5797C33.4204 8.22654 31.8611 0.878291 31.8427 0.788008L31.6844 0.000976793H30.6474L31.4063 10.3394C31.8321 12.2716 32.3023 14.0076 32.8025 15.5012Z" fill="#4686FF"/>
<path d="M12.5498 28.2458C12.9679 35.4714 18.087 41.4428 23.7633 44.2749C21.727 41.0719 20.3685 35.912 20.2305 30.0603C20.1378 26.1585 20.5588 22.8435 21.4818 20.2087C22.0128 18.6915 22.2803 17.9506 22.4734 17.4118C22.6945 16.7985 22.819 16.4511 23.1386 15.5002C23.6417 13.9988 24.1128 12.2569 24.5367 10.3227L25.648 0H24.3117L24.1572 0.789976C24.1399 0.879277 22.625 8.14607 15.4222 14.4757C15.0669 17.3903 14.3968 20.086 13.4081 22.5148C12.7168 24.2135 12.4281 26.1418 12.5498 28.2458Z" fill="#4686FF"/>
<path d="M24.2876 18.088C24.0945 18.6228 23.8299 19.3598 23.3018 20.8681C22.4705 23.242 22.0765 26.4048 22.1615 30.0142C22.3642 38.6175 25.199 44.6321 27.8677 45.5929H28.0753C30.744 44.6321 33.5787 38.6185 33.7815 30.0142C33.8664 26.4028 33.4725 23.241 32.6412 20.8681C32.1111 19.3539 31.8456 18.6169 31.6525 18.0811C31.4285 17.4589 31.3001 17.1037 30.9747 16.1351C30.4447 14.5562 29.9513 12.726 29.5071 10.6966L29.4869 10.5562L28.7125 0.000976793H27.5906L26.4349 10.6966C25.9927 12.722 25.4983 14.5512 24.9673 16.1351C24.6409 17.1066 24.5135 17.4619 24.2876 18.088Z" fill="#4686FF"/>
<path d="M46.5543 18.6238C45.2132 17.8947 43.9967 17.1125 42.8815 16.301C43.1953 18.2479 43.6897 20.0781 44.3761 21.765C45.1794 23.7395 45.5164 25.9583 45.3774 28.3606C44.9419 35.8982 39.8903 42.1876 34.0721 45.4918C47.0883 44.1886 56 38.1543 56 30.4224C56 25.8719 52.5444 21.5649 46.5543 18.6238Z" fill="#4686FF"/>
<path d="M10.6226 28.3606C10.4836 25.9593 10.8205 23.7405 11.6239 21.765C12.3152 20.0664 12.8385 18.2195 13.2005 16.2499C12.0738 17.0733 10.8418 17.8662 9.48138 18.6061C3.45559 21.5649 0 25.8719 0 30.4224C0 37.8089 8.80262 43.7774 21.6874 45.3583C15.9706 42.0188 11.0523 35.7942 10.6226 28.3606Z" fill="#4686FF"/>
</svg>
