<svg width="67" height="52" viewBox="0 0 67 52" fill="none" xmlns="http://www.w3.org/2000/svg">
<path d="M61.4369 0.280062C57.3843 -0.835219 53.1765 1.4803 52.0385 5.45192L44.4676 31.8737L22.8662 25.929C20.897 32.8012 24.9853 39.9367 31.9977 41.8665C38.955 43.7812 46.1768 39.8522 48.2129 33.0788L48.2139 33.079L55.8311 6.49565C56.3809 4.57678 58.4139 3.45805 60.3719 3.99689C62.3299 4.53573 63.4714 6.5281 62.9216 8.44698L62.8522 8.68938L66.6448 9.73311L66.7142 9.49071C67.8522 5.51909 65.4895 1.39534 61.4369 0.280062Z" fill="#4686FF"/>
<path d="M20.8855 32.8312C22.496 39.2921 28.4405 44.0869 35.5274 44.0869C42.046 44.0869 47.5981 40.0303 49.7 34.3519C57.0136 36.1526 61.9039 38.9771 61.9039 42.1526C61.9039 47.5912 47.9069 52 30.8622 52C13.8175 52 0 47.5912 0 42.1526C0 37.8281 8.73668 34.1546 20.8855 32.8312Z" fill="#4686FF"/>
</svg>
